<?xml version="1.0" encoding="UTF-8"?>
<svg width="259px" height="75px" viewBox="0 0 259 75" version="1.1" xmlns="http://www.w3.org/2000/svg" xmlns:xlink="http://www.w3.org/1999/xlink">
    <!-- Generator: Sketch 48.2 (47327) - http://www.bohemiancoding.com/sketch -->
    <title>Page 1</title>
    <desc>Created with Sketch.</desc>
    <defs>
        <polygon id="path-1" points="0 0.509647727 64.7240896 0.509647727 64.7240896 42.9995114 0 42.9995114"></polygon>
        <polygon id="path-3" points="0.4144 0.7344 11.083 0.7344 11.083 33.3073714 0.4144 33.3073714"></polygon>
    </defs>
    <g id="Desktop" stroke="none" stroke-width="1" fill="none" fill-rule="evenodd" transform="translate(-684.000000, -629.000000)">
        <g id="Page-1" transform="translate(684.000000, 629.000000)">
            <path d="M44.8577553,7.16269213 C45.1402962,12.5295762 44.0062354,20.1862133 39.0042868,30.4094085 L38.7763055,30.8730321 L31.2889712,30.3115976 C31.2889712,30.3115976 31.9280982,28.8121565 32.0752143,28.5157895 C33.5444271,25.5325571 34.6278254,22.8251514 35.4169914,20.3749884 L24.4592751,26.5977177 C23.0904131,27.3753144 21.3367108,26.887238 20.5631333,25.513973 C19.7885814,24.1387517 20.2747467,22.3801118 21.6436087,21.6025151 L37.0479345,12.8523521 C37.0664458,12.842571 37.0869057,12.8376805 37.105417,12.8278994 C37.3616524,10.571402 37.3246298,8.68658593 37.1463367,7.15095482 L12.8692518,20.9393572 C11.501364,21.7169539 9.74766173,21.2288775 8.97408418,19.8546344 C8.19953235,18.4803912 8.68569758,16.7197951 10.0545596,15.9441546 L35.2844895,1.61387983 L32.5,0 L7.69290725,14.3791803 L0,18.8383791 L0,21.7365161 C0.0545596259,21.8401956 0.115939205,21.9380065 0.157833203,22.0495109 C0.190958691,22.1258034 4.68920499,32.0790405 28.3856196,32.9466232 C31.04053,32.8722869 52.5643024,32.6111318 65,42 L65,18.8383791 L44.8577553,7.16269213 Z" id="Fill-1" fill="#318EEF"></path>
            <g id="Group-5" transform="translate(0.000000, 32.000000)">
                <mask id="mask-2" fill="white">
                    <use xlink:href="#path-1"></use>
                </mask>
                <g id="Clip-4"></g>
                <path d="M64.7143881,21.9207159 L64.707597,21.9197386 C64.6833433,21.8659886 64.6629701,21.8239659 64.6406567,21.774125 C64.6299851,21.7477386 64.6134925,21.7262386 64.603791,21.7008295 L64.6067015,21.698875 C64.3098358,21.0460568 64.0750597,20.613125 63.8383433,20.1899659 C63.3930448,19.3973977 62.7284925,18.4601932 62.6004328,18.2793977 C53.4781194,6.92055682 27.5305075,7.59976136 27.2695373,7.60757955 L27.0221493,7.60757955 C13.3100597,7.11992045 4.9861791,3.85289773 -0.000388059701,0.509647727 L-0.000388059701,24.1791932 L19.1328955,35.3054432 C18.3917015,26.8334659 21.3642388,17.6041023 24.3678209,10.7436477 L24.5870746,10.239375 L32.0232687,10.9351932 L31.5867015,11.9114886 C30.3148358,14.7504659 29.0410299,18.0243295 28.0893134,21.4291477 L39.403194,14.9811023 C40.7652836,14.2051477 42.5115522,14.6928068 43.2818507,16.065875 C44.0531194,17.4379659 43.5690149,19.1970568 42.2059552,19.9739886 L26.8669254,28.7147159 C26.8009552,28.7518523 26.7320746,28.7733523 26.6661045,28.8036477 C26.4837164,30.7308295 26.4740149,32.631625 26.6981194,34.4522841 L50.9431194,20.6365795 C52.305209,19.8596477 54.0514776,20.3473068 54.8217761,21.7193977 C55.5930448,23.0924659 55.1089403,24.8505795 53.7458806,25.6275114 L28.4065522,40.0676932 C28.450209,40.1497841 28.4938657,40.2348068 28.5355821,40.3081023 C28.6636418,40.5377614 28.8198358,40.7879432 28.977,41.0312841 L32.3618507,42.9995114 L49.6305075,32.9570568 L64.7240896,24.1791932 L64.7240896,21.9383068 C64.7211791,21.9324432 64.7172985,21.9265795 64.7143881,21.9207159" id="Fill-3" fill="#1E2D55" mask="url(#mask-2)"></path>
            </g>
            <path d="M82.8903371,52.0001789 C85.5870522,52.0001789 87.6429257,51.4008231 89.0560389,50.2001432 C90.4691521,49.0004473 91.1761884,47.3007963 91.1761884,45.1002058 C91.1761884,40.4992395 88.414238,38.2002326 82.8903371,38.2002326 L79.2342783,38.2002326 L79.2342783,51.5002237 C79.5921135,51.63407 79.917331,51.7177239 80.2099309,51.7502013 C80.9236826,51.9175092 81.7362467,52.0001789 82.6466638,52.0001789 L82.8903371,52.0001789 Z M82.8903371,35.9494498 C85.0018525,35.9494498 86.6682325,35.4426054 87.886599,34.4249799 C89.1049654,33.4083386 89.7141487,31.7667532 89.7141487,29.5002237 C89.7141487,27.2002326 88.9908035,25.5419164 87.5450726,24.524291 C86.0983823,23.5086338 84.3044097,22.9998211 82.1593172,22.9998211 C81.2815177,22.9998211 80.5994244,23.0677284 80.1120778,23.1996063 L79.2342783,23.3501834 L79.2342783,35.9494498 L82.8903371,35.9494498 Z M72.8987727,27.4994184 C72.8987727,25.7997674 72.6714083,24.5420059 72.2166793,23.7251499 C71.7609911,22.9082938 70.8515333,22.4988816 69.4863872,22.4988816 L69,22.4988816 L69,21 L82.1593172,21 C86.253796,21 89.6728969,21.5836092 92.4194978,22.7498434 C95.1641801,23.9170618 96.5379602,26.2495303 96.5379602,29.7502013 C96.5379602,31.2835287 95.9441265,32.7253288 94.7583777,34.0746175 C93.5716696,35.4248904 91.9072083,36.383466 89.7630752,36.9503445 C95.2533991,37.5172229 98,40.1498613 98,44.8502281 C98,48.3174376 96.6511628,50.7089559 93.9544477,52.024783 C91.2567733,53.3425785 87.8127295,54 83.621357,54 L72.8987727,54 L72.8987727,27.4994184 Z" id="Fill-6" fill="#1E2D55"></path>
            <path d="M105.833161,53.4252483 C105.169182,53.0424085 104.698004,52.3918762 104.418596,51.4756196 C104.138157,50.5583788 104,49.2336942 104,47.4995974 L104,21 L110.808886,21 L110.808886,47.4995974 C110.808886,49.2002326 111.053238,50.4579941 111.542975,51.2748501 C112.031681,52.0926903 113.009092,52.5001342 114.47624,52.5001342 L115,52.5001342 L115,54 L108.713844,54 C107.457025,54 106.49611,53.8090722 105.833161,53.4252483" id="Fill-8" fill="#1E2D55"></path>
            <path d="M140.586213,48.7753065 C142.253905,46.1250141 143.089723,42.3665786 143.089723,37.5 C143.089723,32.6334214 142.253905,28.8749859 140.586213,26.2246935 C138.91655,23.5753852 136.562857,22.2497469 133.525134,22.2497469 C130.487411,22.2497469 128.142588,23.5753852 126.489681,26.2246935 C124.836773,28.8749859 124.010812,32.6334214 124.010812,37.5 C124.010812,42.3665786 124.836773,46.1250141 126.489681,48.7753065 C128.142588,51.4246148 130.487411,52.7502531 133.525134,52.7502531 C136.562857,52.7502531 138.91655,51.4246148 140.586213,48.7753065 M124.88704,52.7000619 C122.36579,51.1677539 120.42212,49.0675964 119.053075,46.3995895 C117.68403,43.7335508 117,40.7663649 117,37.5 C117,34.2336351 117.68403,31.2674334 119.053075,28.5994264 C120.42212,25.9333877 122.36579,23.8332302 124.88704,22.2999381 C127.407306,20.766646 130.286342,20 133.525134,20 C136.76294,20 139.634091,20.766646 142.1376,22.2999381 C144.642096,23.8332302 146.57788,25.9333877 147.946925,28.5994264 C149.314985,31.2674334 150,34.2336351 150,37.5 C150,40.7663649 149.314985,43.7335508 147.946925,46.3995895 C146.57788,49.0675964 144.642096,51.1677539 142.1376,52.7000619 C139.634091,54.2323698 136.76294,55 133.525134,55 C130.286342,55 127.407306,54.2323698 124.88704,52.7000619" id="Fill-10" fill="#1E2D55"></path>
            <path d="M166.642051,52.0001789 C168.957501,52.0001789 171.017959,51.4175539 172.821471,50.2503355 C174.624982,49.0841013 176.031838,47.4001968 177.042039,45.2005905 C178.051263,43 178.554409,40.4333005 178.554409,37.5004921 C178.554409,34.600161 178.051263,32.0580657 177.042039,29.8751901 C176.031838,27.6923146 174.616189,25.9995527 172.797046,24.7998568 C170.976926,23.600161 168.892043,22.9998211 166.542398,22.9998211 L166.145743,22.9998211 C165.053475,22.9998211 164.177121,23.0677284 163.514727,23.1996063 L162.423436,23.3501834 L162.423436,51.6508008 L163.514727,51.850586 C164.210339,51.9499866 165.085716,52.0001789 166.145743,52.0001789 L166.642051,52.0001789 Z M155.970461,27.4994184 C155.970461,25.7997674 155.738916,24.5420059 155.274848,23.7251499 C154.811758,22.9082938 153.885578,22.4988816 152.496308,22.4988816 L152,22.4988816 L152,21 L165.499957,21 C172.184477,21 177.272607,22.4240852 180.764346,25.275208 C184.254131,28.1243625 186,32.1328621 186,37.2997226 C186,40.6006084 185.264331,43.5088127 183.79104,46.0253199 C182.319703,48.541827 180.135169,50.5003131 177.240367,51.8997942 C174.343611,53.3002595 170.860665,54 166.790552,54 L155.970461,54 L155.970461,27.4994184 Z" id="Fill-12" fill="#318EEF"></path>
            <path d="M193.657346,42.5203356 L204.821999,42.5203356 L199.388444,29.5478745 L193.657346,42.5203356 Z M210.997466,52.6842651 C209.317226,51.8058042 207.950085,50.0909468 206.897018,47.5396929 L205.760328,44.7565957 L192.620809,44.7565957 L188.569951,53.801417 L186,53.801417 L200.573752,21 L202.79657,21 L213.862043,47.5396929 C215.113472,50.6211537 216.826772,52.2782949 219,52.5101381 L219,53.7515266 C218.407832,53.9168495 217.617302,54 216.629383,54 C214.554364,54 212.677706,53.5617478 210.997466,52.6842651 Z" id="Fill-14" fill="#318EEF"></path>
            <path d="M226.508724,23.2497987 L223.054968,23.2497987 C221.237606,23.2497987 219.852082,23.7172766 218.895525,24.6502639 C217.93801,25.5832513 217.46021,27.1175629 217.46021,29.250246 L216,29.250246 L216,24.9996421 C216,22.3325579 217.378821,21 220.136464,21 L243,21 L243,23.2497987 L232.832151,23.2497987 L232.832151,54 L226.508724,54 L226.508724,23.2497987 Z" id="Fill-16" fill="#318EEF"></path>
            <g id="Group-20" transform="translate(247.000000, 20.000000)">
                <mask id="mask-4" fill="white">
                    <use xlink:href="#path-3"></use>
                </mask>
                <g id="Clip-19"></g>
                <path d="M2.1924,32.7400571 C1.5484,32.3621714 1.0904,31.7200571 0.8204,30.8156571 C0.5484,29.9102857 0.4144,28.6027429 0.4144,26.8910857 L0.4144,0.7344 L7.0184,0.7344 L7.0184,26.8910857 C7.0184,28.5697143 7.2544,29.8112 7.7304,30.6174857 C8.2044,31.4247429 9.1524,31.8269143 10.5754,31.8269143 L11.0834,31.8269143 L11.0834,33.3073714 L4.9864,33.3073714 C3.7674,33.3073714 2.8354,33.1189143 2.1924,32.7400571" id="Fill-18" fill="#318EEF" mask="url(#mask-4)"></path>
            </g>
        </g>
    </g>
</svg>